HIERARCHY
ROOT Hips
{
	OFFSET 0.000000 0.000000 0.000000
	CHANNELS 6 Xposition Yposition Zposition Xrotation Yrotation Zrotation
	JOINT Chest
	{
		OFFSET 0.000000 0.009282 11.569106
		CHANNELS 3 Xrotation Yrotation Zrotation
		JOINT Chest2
		{
			OFFSET 0.000000 -0.016863 9.269641
			CHANNELS 3 Xrotation Yrotation Zrotation
			JOINT Chest3
			{
				OFFSET 0.000000 0.000000 8.374491
				CHANNELS 3 Xrotation Yrotation Zrotation
				JOINT Chest4
				{
					OFFSET 0.000000 0.000000 8.374493
					CHANNELS 3 Xrotation Yrotation Zrotation
					JOINT Neck
					{
						OFFSET 0.000000 -0.000001 12.152554
						CHANNELS 3 Xrotation Yrotation Zrotation
						JOINT Head
						{
							OFFSET 0.000000 -0.040100 7.802319
							CHANNELS 3 Xrotation Yrotation Zrotation
							End Site
							{
								OFFSET 0.000000 -0.020946 14.853096
							}
						}
					}
					JOINT RightCollar
					{
						OFFSET -2.894404 0.000000 6.791374
						CHANNELS 3 Xrotation Yrotation Zrotation
						JOINT RightShoulder
						{
							OFFSET -13.574684 0.000000 0.000000
							CHANNELS 3 Xrotation Yrotation Zrotation
							JOINT RightElbow
							{
								OFFSET -23.923903 0.000000 0.000000
								CHANNELS 3 Xrotation Yrotation Zrotation
								JOINT RightWrist
								{
									OFFSET -19.846718 -0.012765 0.000000
									CHANNELS 3 Xrotation Yrotation Zrotation
									End Site
									{
										OFFSET -14.973145 0.000000 0.000000
									}
								}
							}
						}
					}
					JOINT LeftCollar
					{
						OFFSET 2.894404 0.000000 6.791374
						CHANNELS 3 Xrotation Yrotation Zrotation
						JOINT LeftShoulder
						{
							OFFSET 13.574684 0.000000 0.000000
							CHANNELS 3 Xrotation Yrotation Zrotation
							JOINT LeftElbow
							{
								OFFSET 23.923903 0.000000 0.000000
								CHANNELS 3 Xrotation Yrotation Zrotation
								JOINT LeftWrist
								{
									OFFSET 19.846718 -0.012765 0.000000
									CHANNELS 3 Xrotation Yrotation Zrotation
									End Site
									{
										OFFSET 14.973145 0.000000 0.000000
									}
								}
							}
						}
					}
				}
			}
		}
	}
	JOINT RightHip
	{
		OFFSET -9.469263 -0.004642 0.045487
		CHANNELS 3 Xrotation Yrotation Zrotation
		JOINT RightKnee
		{
			OFFSET 0.000000 -0.002666 -40.478676
			CHANNELS 3 Xrotation Yrotation Zrotation
			JOINT RightAnkle
			{
				OFFSET 0.000000 -0.049110 -35.224068
				CHANNELS 3 Xrotation Yrotation Zrotation
				JOINT RightToe
				{
					OFFSET 0.000000 -12.539530 -6.151390
					CHANNELS 3 Xrotation Yrotation Zrotation
					End Site
					{
						OFFSET 0.000000 -5.044995 -1.291870
					}
				}
			}
		}
	}
	JOINT LeftHip
	{
		OFFSET 9.469263 -0.004642 0.045487
		CHANNELS 3 Xrotation Yrotation Zrotation
		JOINT LeftKnee
		{
			OFFSET 0.000000 -0.002666 -40.478676
			CHANNELS 3 Xrotation Yrotation Zrotation
			JOINT LeftAnkle
			{
				OFFSET 0.000000 -0.049110 -35.224068
				CHANNELS 3 Xrotation Yrotation Zrotation
				JOINT LeftToe
				{
					OFFSET 0.000000 -12.539530 -6.151390
					CHANNELS 3 Xrotation Yrotation Zrotation
					End Site
					{
						OFFSET 0.000000 -5.044995 -1.291870
					}
				}
			}
		}
	}
}
MOTION
Frames: 10
Frame Time: 0.016667
-59.315010 33.261391 34.722668 13.271140 12.773054 -117.634545 8.724770 -2.661330 -1.022764 3.839450 -1.122422 -0.551032 3.839454 -1.122420 -0.551036 2.880513 -0.838394 -0.420333 18.938649 -0.817761 -1.324020 -1.019847 -1.068436 -2.681583 -4.722339 -4.411543 -4.034889 33.414761 -36.391251 16.954927 61.363717 10.442724 62.860758 -51.593418 30.350837 91.197348 -7.669426 11.157498 -2.983485 26.523059 43.166567 -4.307986 62.818486 8.190884 -50.264291 -30.340151 -32.540268 -89.225063 -100.175502 -3.615110 -11.434571 110.820011 -27.219053 4.043063 5.112451 14.006053 -16.995017 -0.118979 0.028062 0.000016 -44.274174 14.966106 2.426138 141.171227 16.328447 -13.614143 24.015188 -23.609372 41.405290 -90.028020 6.793163 6.846944 
-59.303974 33.306969 34.685852 13.188496 12.820595 -117.522858 8.653315 -2.661418 -1.071101 3.827862 -1.142636 -0.553340 3.827865 -1.142636 -0.553334 2.871843 -0.853552 -0.422173 18.888524 -0.784354 -1.326934 -1.112143 -1.005498 -2.676593 -4.699693 -4.388989 -4.031430 33.356923 -36.375651 16.872082 61.407062 10.470453 62.872602 -51.664111 30.353719 91.254510 -7.644764 11.159577 -2.979198 26.623972 43.215102 -4.417305 62.811909 8.248174 -50.254790 -30.304614 -32.577984 -89.127350 -100.220288 -3.594141 -11.361171 110.813740 -27.142417 3.982576 5.137679 13.929277 -16.936791 -0.101036 0.023068 0.008179 -44.294658 15.068128 2.472500 141.180584 16.274558 -13.593962 24.127162 -23.585072 41.495295 -90.116908 6.847214 6.889126 
-59.295124 33.324150 34.654053 13.161452 12.866915 -117.451687 8.614634 -2.691156 -1.078823 3.816202 -1.162077 -0.552851 3.816203 -1.162077 -0.552839 2.863111 -0.868147 -0.421897 18.834139 -0.767047 -1.328106 -1.212721 -0.972445 -2.673614 -4.688777 -4.383282 -4.033774 33.336203 -36.349898 16.799489 61.435673 10.514791 62.890019 -51.779063 30.356485 91.351246 -7.602373 11.159219 -2.981722 26.735181 43.257429 -4.535965 62.775435 8.304510 -50.246413 -30.276022 -32.602002 -89.034432 -100.247909 -3.596050 -11.295880 110.800531 -27.098123 3.921329 5.119604 13.841507 -17.058730 -0.069307 0.029587 0.002945 -44.288296 15.112675 2.501143 141.195105 16.254310 -13.656444 24.220276 -23.583509 41.642359 -90.145889 6.891188 6.933034 
-59.275364 33.365925 34.624748 13.134899 12.912393 -117.372293 8.568791 -2.716420 -1.096569 3.805151 -1.182622 -0.552139 3.805150 -1.182620 -0.552130 2.854832 -0.883569 -0.421468 18.781000 -0.755870 -1.327813 -1.311161 -0.951081 -2.669900 -4.672392 -4.370424 -4.029904 33.343115 -36.321669 16.744241 61.455078 10.558974 62.911814 -51.898223 30.365556 91.445209 -7.539574 11.171085 -2.987450 26.796492 43.305599 -4.609787 62.745888 8.349688 -50.225075 -30.229581 -32.622937 -88.952231 -100.273591 -3.612017 -11.226387 110.762623 -27.069122 3.889297 5.129957 13.756173 -17.171715 -0.038825 0.031000 0.002805 -44.279420 15.146477 2.531845 141.207331 16.219194 -13.757671 24.373269 -23.593473 41.863684 -90.192259 6.955161 6.991915 
-59.255615 33.387951 34.602390 13.124390 12.967906 -117.309728 8.553937 -2.742422 -1.106127 3.802478 -1.201224 -0.551006 3.802479 -1.201224 -0.551012 2.852842 -0.897532 -0.420732 18.714216 -0.749980 -1.321752 -1.435087 -0.940984 -2.657457 -4.644473 -4.359363 -3.998845 33.300669 -36.298040 16.679807 61.473444 10.583781 62.949619 -51.973075 30.390691 91.507849 -7.533234 11.182066 -2.973209 26.837082 43.362959 -4.653506 62.726456 8.370784 -50.179586 -30.169161 -32.649513 -88.888847 -100.292005 -3.636232 -11.169105 110.729340 -27.039729 3.848973 5.156652 13.671854 -17.236558 -0.019068 0.028847 0.002510 -44.259643 15.163744 2.576730 141.206976 16.181871 -13.812360 24.485670 -23.593201 42.035559 -90.221280 7.020648 7.055141 
-59.229382 33.423267 34.585777 13.098100 13.017051 -117.235170 8.540144 -2.758015 -1.119650 3.803226 -1.218168 -0.551006 3.803228 -1.218168 -0.551008 2.853416 -0.910241 -0.420833 18.637708 -0.747486 -1.317069 -1.577139 -0.936456 -2.648698 -4.651646 -4.341486 -3.978528 33.292784 -36.264268 16.630018 61.475807 10.598778 62.993018 -52.006355 30.408931 91.534200 -7.536279 11.180910 -2.961718 26.827549 43.437589 -4.672621 62.729714 8.372910 -50.122312 -30.108741 -32.669877 -88.847258 -100.326941 -3.640233 -11.129875 110.697853 -26.970750 3.783708 5.219648 13.565876 -17.129684 -0.017110 0.032184 0.000108 -44.254442 15.185664 2.624155 141.200105 16.128971 -13.821648 24.575152 -23.589023 42.155340 -90.251463 7.089995 7.120673 
-59.202770 33.438442 34.572975 13.100019 13.051629 -117.169327 8.531891 -2.802090 -1.126893 3.803352 -1.239400 -0.551283 3.803349 -1.239400 -0.551286 2.853522 -0.926162 -0.421182 18.560295 -0.742892 -1.314721 -1.720786 -0.927324 -2.643537 -4.679985 -4.311017 -3.954617 33.306448 -36.220804 16.574012 61.466505 10.601996 63.047782 -52.007868 30.430422 91.537738 -7.524597 11.193659 -2.962187 26.790635 43.523994 -4.677306 62.734891 8.362613 -50.056725 -30.058689 -32.697768 -88.806523 -100.357657 -3.645319 -11.117876 110.652008 -26.912376 3.714049 5.270307 13.470032 -17.086391 -0.006309 0.035054 0.004100 -44.249432 15.186798 2.647885 141.196321 16.094846 -13.839049 24.675570 -23.620355 42.282392 -90.266073 7.153282 7.183405 
-59.170761 33.470238 34.560410 13.099931 13.089212 -117.102009 8.525249 -2.841312 -1.143410 3.805609 -1.262208 -0.553619 3.805608 -1.262205 -0.553620 2.855238 -0.943250 -0.423079 18.482403 -0.735241 -1.311470 -1.865308 -0.912902 -2.635691 -4.701425 -4.281005 -3.903826 33.278587 -36.174734 16.485765 61.479134 10.596058 63.115319 -52.011716 30.453590 91.543475 -7.556368 11.221918 -2.936214 26.827738 43.607585 -4.694269 62.710467 8.347992 -49.989820 -30.007941 -32.728948 -88.749450 -100.382416 -3.644471 -11.083572 110.607551 -26.893100 3.659008 5.324640 13.398879 -17.048215 0.004169 0.035855 0.008730 -44.240006 15.178782 2.663901 141.207495 16.058871 -13.913853 24.769985 -23.617332 42.460441 -90.285778 7.230917 7.254854 
-59.143826 33.480549 34.551102 13.122482 13.140553 -117.056274 8.537978 -2.881627 -1.137686 3.813615 -1.280956 -0.549309 3.813611 -1.280956 -0.549302 2.861244 -0.957335 -0.419978 18.400900 -0.739741 -1.314008 -2.016724 -0.918710 -2.642457 -4.717148 -4.269106 -3.886427 33.243197 -36.125857 16.410744 61.505662 10.582260 63.174325 -52.046011 30.476891 91.581178 -7.591771 11.222705 -2.920921 26.879793 43.695261 -4.730183 62.679014 8.344279 -49.928775 -29.955198 -32.750938 -88.684535 -100.381077 -3.641774 -11.062514 110.568994 -26.884231 3.622218 5.397152 13.332138 -16.967624 0.003250 0.039791 0.010603 -44.201159 15.160730 2.678466 141.213519 16.042468 -13.986259 24.859937 -23.642859 42.634136 -90.289725 7.299634 7.322765 
-59.116158 33.509403 34.545486 13.129640 13.196223 -117.014555 8.548403 -2.907054 -1.131888 3.822647 -1.297775 -0.542760 3.822649 -1.297775 -0.542754 2.868018 -0.969983 -0.415189 18.318501 -0.749536 -1.318683 -2.169944 -0.933451 -2.654868 -4.716973 -4.258178 -3.867939 33.215838 -36.090508 16.349118 61.521939 10.583830 63.211283 -52.113288 30.495162 91.641126 -7.582978 11.224001 -2.918302 26.857322 43.777114 -4.749170 62.663693 8.363680 -49.880714 -29.895472 -32.765794 -88.618945 -100.371590 -3.636242 -11.030676 110.540731 -26.888209 3.611641 5.427898 13.290553 -17.009685 0.016462 0.047063 0.008517 -44.163139 15.151019 2.693183 141.216784 16.014386 -14.023680 24.937557 -23.673550 42.760266 -90.302170 7.369506 7.388073 
